# xmcd
#
# Track frame offsets: 
#        150
#        19940
#        35303
#        47542
#        79759
#        94565
#        114625
#        135548
#        157364
#        172620
#
# Disc length: 2649 seconds
#
# Revision: 0
# Processed by: cddbd v1.5.2PL0 Copyright (c) Steve Scherf et al.
# Submitted via: ExactAudioCopy v0.99pb3
#
DISCID=720a570a
DTITLE=Axelle Red - Sisters and Empathy [CD 1)
DYEAR=2009
DGENRE=Soul and Blues
TTITLE0=BWU (Had To)
TTITLE1=Don't Want to Know
TTITLE2=No Right To Love
TTITLE3=Friends
TTITLE4=livin' in A suitcase
TTITLE5=Sold to The Man In Gold
TTITLE6=Beautiful Thoughts
TTITLE7=Mum Tell Your Son (Daughter)
TTITLE8=She's Defective
TTITLE9=Empathy
EXTD=
EXTT0=
EXTT1=
EXTT2=
EXTT3=
EXTT4=
EXTT5=
EXTT6=
EXTT7=
EXTT8=
EXTT9=
PLAYORDER=
